<?xml version="1.0" encoding="UTF-8" standalone="no"?><!DOCTYPE svg PUBLIC "-//W3C//DTD SVG 1.1//EN" "http://www.w3.org/Graphics/SVG/1.1/DTD/svg11.dtd"><svg width="100%" height="100%" viewBox="0 0 602 117" version="1.1" xmlns="http://www.w3.org/2000/svg" xmlns:xlink="http://www.w3.org/1999/xlink" xml:space="preserve" xmlns:serif="http://www.serif.com/" style="fill-rule:evenodd;clip-rule:evenodd;stroke-linejoin:round;stroke-miterlimit:2;"><path d="M0,0l6.974,0l0,116.847l-6.974,-0l0,-116.847Zm594.466,0l6.974,0l0,116.847l-6.974,-0l0,-116.847Zm-148.617,0l6.974,0l-0,116.847l-6.974,-0l-0,-116.847Zm-148.616,0l6.974,0l-0,116.847l-6.974,-0l-0,-116.847Zm-148.617,0l6.974,0l-0,116.847l-6.974,-0l-0,-116.847Z" style="fill:#f0f;"/><g><path d="M9.041,29.883l-4.631,0l0,-24.01l4.63,0l8.781,15.744l0.069,-0l-0,-15.744l4.665,0l-0,24.01l-4.562,0l-8.884,-15.744l-0.068,0l-0,15.744Z" style="fill-rule:nonzero;"/><path d="M39.499,23.606l3.121,2.744c-1.852,2.698 -4.356,4.047 -7.512,4.047c-2.538,0 -4.607,-0.868 -6.208,-2.606c-1.6,-1.738 -2.401,-4.071 -2.401,-6.998c0,-2.904 0.789,-5.225 2.367,-6.962c1.623,-1.761 3.636,-2.642 6.037,-2.642c2.424,0 4.413,0.881 5.968,2.642c1.578,1.737 2.367,4.058 2.367,6.962l-0,1.338l-12.211,0c0.068,1.395 0.451,2.464 1.149,3.207c0.697,0.743 1.652,1.115 2.864,1.115c0.96,-0 1.778,-0.234 2.452,-0.703c0.675,-0.469 1.344,-1.184 2.007,-2.144Zm-8.472,-4.802l7.889,0c-0.115,-1.166 -0.52,-2.075 -1.218,-2.727c-0.697,-0.651 -1.629,-0.977 -2.795,-0.977c-1.075,-0 -1.967,0.348 -2.676,1.046c-0.709,0.697 -1.109,1.583 -1.2,2.658Z" style="fill-rule:nonzero;"/><path d="M47.765,23.4l0,-7.923l-2.812,-0l-0,-3.773l2.915,-0l0,-4.459l4.219,-0l-0,4.459l4.596,-0l0,3.773l-4.527,-0l-0,7.512c-0,0.983 0.165,1.663 0.497,2.041c0.332,0.377 0.977,0.565 1.938,0.565l1.475,0l-0,4.288l-1.887,-0c-2.424,-0 -4.104,-0.515 -5.042,-1.544c-0.914,-1.006 -1.372,-2.652 -1.372,-4.939Z" style="fill-rule:nonzero;"/><path d="M74.794,29.883l-15.71,0l0,-3.739l9.673,-10.255l-0,-0.069l-9.296,0l0,-4.116l14.99,0l-0,3.67l-9.467,10.153l-0,0.069l9.81,-0l-0,4.287Z" style="fill-rule:nonzero;"/><path d="M85.529,29.883l-4.321,0l-4.013,-18.179l4.356,0l2.401,12.142l0.103,0l4.047,-12.142l4.047,0l3.739,12.108l0.069,-0l2.744,-12.108l4.287,0l-4.356,18.179l-4.39,0l-4.151,-13.068l-0.068,-0l-4.494,13.068Z" style="fill-rule:nonzero;"/><path d="M117.873,23.606l3.121,2.744c-1.852,2.698 -4.356,4.047 -7.511,4.047c-2.538,0 -4.608,-0.868 -6.209,-2.606c-1.6,-1.738 -2.4,-4.071 -2.4,-6.998c-0,-2.904 0.788,-5.225 2.366,-6.962c1.624,-1.761 3.636,-2.642 6.037,-2.642c2.424,0 4.413,0.881 5.968,2.642c1.578,1.737 2.367,4.058 2.367,6.962l-0,1.338l-12.211,0c0.069,1.395 0.452,2.464 1.149,3.207c0.698,0.743 1.652,1.115 2.864,1.115c0.961,-0 1.778,-0.234 2.453,-0.703c0.674,-0.469 1.343,-1.184 2.006,-2.144Zm-8.472,-4.802l7.889,0c-0.114,-1.166 -0.52,-2.075 -1.218,-2.727c-0.697,-0.651 -1.629,-0.977 -2.795,-0.977c-1.075,-0 -1.967,0.348 -2.675,1.046c-0.709,0.697 -1.109,1.583 -1.201,2.658Z" style="fill-rule:nonzero;"/><path d="M129.672,29.883l-4.459,0l0,-18.179l4.219,0l0,1.921l0.069,-0c0.343,-0.686 0.852,-1.235 1.526,-1.647c0.675,-0.411 1.412,-0.617 2.213,-0.617c0.617,0 1.166,0.114 1.646,0.343l-0.686,4.322c-0.549,-0.183 -1.018,-0.275 -1.406,-0.275c-2.081,0 -3.122,1.384 -3.122,4.151l0,9.981Z" style="fill-rule:nonzero;"/><path d="M142.26,29.883l-4.458,0l-0,-25.039l4.458,0l0,14.372l0.069,-0l6.62,-7.512l5.591,0l-6.551,7.375l7.134,10.804l-4.939,0l-5.557,-8.301l-0.068,0l-2.299,2.607l0,5.694Z" style="fill-rule:nonzero;"/></g><path d="M432.792,61.357l-0,-3.327c-0,-1.121 -0.355,-2.052 -1.064,-2.796c-0.708,-0.743 -1.657,-1.114 -2.846,-1.114c-1.327,-0 -2.344,0.474 -3.053,1.423c-0.709,0.949 -1.064,2.338 -1.064,4.167c0,1.83 0.355,3.219 1.064,4.168c0.709,0.949 1.726,1.423 3.053,1.423c1.189,0 2.138,-0.377 2.846,-1.132c0.709,-0.754 1.064,-1.692 1.064,-2.812Zm4.459,7.443l-4.185,0l0,-1.749l-0.069,-0c-0.114,0.16 -0.285,0.366 -0.514,0.617c-0.206,0.252 -0.732,0.595 -1.578,1.029c-0.823,0.412 -1.726,0.617 -2.71,0.617c-2.401,0 -4.321,-0.868 -5.762,-2.606c-1.418,-1.761 -2.127,-4.093 -2.127,-6.998c0,-2.926 0.778,-5.259 2.333,-6.997c1.532,-1.738 3.361,-2.607 5.488,-2.607c0.892,0 1.726,0.178 2.504,0.532c0.777,0.355 1.326,0.738 1.646,1.149l0.446,0.583l0.069,0l-0,-8.609l4.459,-0l-0,25.039Z" style="fill-rule:nonzero;"/><path d="M453.852,62.523l3.121,2.744c-1.852,2.698 -4.356,4.047 -7.512,4.047c-2.538,0 -4.607,-0.868 -6.208,-2.606c-1.6,-1.738 -2.401,-4.071 -2.401,-6.998c0,-2.904 0.789,-5.225 2.367,-6.962c1.623,-1.761 3.636,-2.642 6.037,-2.642c2.424,0 4.413,0.881 5.968,2.642c1.578,1.737 2.367,4.058 2.367,6.962l-0,1.338l-12.211,0c0.068,1.395 0.451,2.464 1.149,3.207c0.697,0.743 1.652,1.115 2.864,1.115c0.96,-0 1.778,-0.234 2.452,-0.703c0.675,-0.469 1.344,-1.184 2.007,-2.144Zm-8.472,-4.802l7.889,0c-0.115,-1.166 -0.52,-2.075 -1.218,-2.727c-0.697,-0.651 -1.629,-0.977 -2.795,-0.977c-1.075,-0 -1.967,0.348 -2.676,1.046c-0.709,0.697 -1.109,1.583 -1.2,2.658Z" style="fill-rule:nonzero;"/><path d="M465.651,68.8l-4.459,0l0,-18.179l4.219,0l-0,1.921l0.069,-0c0.343,-0.686 0.851,-1.235 1.526,-1.647c0.675,-0.411 1.412,-0.617 2.212,-0.617c0.618,0 1.166,0.114 1.647,0.343l-0.686,4.322c-0.549,-0.183 -1.018,-0.275 -1.407,-0.275c-2.08,0 -3.121,1.384 -3.121,4.151l0,9.981Z" style="fill-rule:nonzero;"/><path d="M307.026,105.825l-4.493,0l0,-24.01l4.768,0l6.963,15.572l0.068,0l6.963,-15.572l4.802,0l0,24.01l-4.528,0l0,-14.749l-0.068,0l-6.826,14.749l-0.754,0l-6.826,-14.749l-0.069,0l0,14.749Z" style="fill-rule:nonzero;"/><path d="M331.071,99.377l-0,-11.731l4.459,0l-0,11.25c-0,1.144 0.217,1.956 0.651,2.436c0.435,0.48 1.132,0.72 2.093,0.72c1.12,0 2,-0.286 2.641,-0.857c0.64,-0.572 0.96,-1.453 0.96,-2.642l0,-10.907l4.459,0l0,18.179l-4.253,0l-0,-1.749l-0.069,-0c-1.143,1.509 -2.721,2.263 -4.733,2.263c-2.058,0 -3.607,-0.611 -4.648,-1.835c-1.04,-1.223 -1.56,-2.932 -1.56,-5.127Z" style="fill-rule:nonzero;"/><path d="M349.764,99.823l4.013,-1.029c0.297,2.538 1.658,3.807 4.082,3.807c1.098,-0 1.972,-0.177 2.624,-0.532c0.652,-0.354 0.977,-0.852 0.977,-1.492c0,-0.549 -0.251,-0.937 -0.754,-1.166c-0.595,-0.32 -1.647,-0.686 -3.156,-1.098c-0.114,-0.023 -0.446,-0.114 -0.994,-0.274c-2.15,-0.618 -3.705,-1.332 -4.665,-2.144c-0.961,-0.812 -1.441,-1.881 -1.441,-3.207c0,-1.509 0.606,-2.813 1.818,-3.91c1.235,-1.098 2.916,-1.647 5.042,-1.647c4.07,0 6.62,1.784 7.649,5.351l-3.704,1.132c-0.343,-0.937 -0.818,-1.64 -1.424,-2.109c-0.606,-0.469 -1.435,-0.703 -2.487,-0.703c-0.846,-0 -1.532,0.16 -2.058,0.48c-0.526,0.32 -0.788,0.72 -0.788,1.2c-0,0.48 0.297,0.881 0.891,1.201c0.641,0.274 2.161,0.754 4.562,1.44c2.15,0.595 3.59,1.327 4.322,2.196c0.777,0.846 1.166,1.966 1.166,3.361c0,1.463 -0.64,2.778 -1.921,3.944c-1.28,1.144 -3.109,1.715 -5.488,1.715c-2.538,0 -4.481,-0.628 -5.831,-1.886c-1.349,-1.281 -2.16,-2.824 -2.435,-4.631Z" style="fill-rule:nonzero;"/><path d="M373.328,105.825l-4.459,0l0,-18.179l4.459,0l0,18.179Zm0,-20.82l-4.459,-0l0,-4.219l4.459,0l0,4.219Z" style="fill-rule:nonzero;"/><path d="M382.589,105.825l-4.459,0l0,-25.039l4.459,0l0,14.372l0.069,-0l6.62,-7.512l5.591,0l-6.552,7.374l7.135,10.805l-4.94,0l-5.556,-8.301l-0.069,0l-2.298,2.607l0,5.694Z" style="fill-rule:nonzero;"/><path d="M402.312,105.825l-4.459,0l-0,-25.039l4.459,0l-0,8.609l0.068,0c0.366,-0.617 0.978,-1.149 1.835,-1.595c0.858,-0.446 1.721,-0.668 2.59,-0.668c1.944,-0 3.487,0.594 4.63,1.783c1.144,1.189 1.716,2.79 1.716,4.802l-0,12.108l-4.459,0l-0,-11.113c-0,-1.052 -0.275,-1.892 -0.824,-2.521c-0.548,-0.629 -1.349,-0.944 -2.401,-0.944c-1.006,0.001 -1.783,0.286 -2.332,0.858c-0.549,0.572 -0.823,1.338 -0.823,2.298l-0,11.422Z" style="fill-rule:nonzero;"/><path d="M422.068,100.886c0.709,0.96 1.716,1.44 3.019,1.44c1.303,0 2.309,-0.48 3.018,-1.44c0.732,-1.006 1.098,-2.39 1.098,-4.15c-0,-1.784 -0.377,-3.156 -1.132,-4.116c-0.709,-0.984 -1.704,-1.475 -2.984,-1.475c-1.258,-0 -2.264,0.48 -3.019,1.44c-0.731,0.983 -1.097,2.367 -1.097,4.151c-0,1.783 0.366,3.167 1.097,4.15Zm-5.488,-4.15c0,-2.973 0.824,-5.317 2.47,-7.032c1.647,-1.715 3.659,-2.572 6.037,-2.572c2.378,-0 4.39,0.857 6.037,2.572c1.646,1.715 2.469,4.059 2.469,7.032c0,3.041 -0.8,5.396 -2.401,7.065c-1.623,1.692 -3.658,2.539 -6.105,2.539c-2.447,-0 -4.482,-0.847 -6.105,-2.539c-1.601,-1.669 -2.401,-4.024 -2.401,-7.065Z" style="fill-rule:nonzero;"/><path d="M448.102,98.485l4.219,1.097c-0.412,2.173 -1.303,3.842 -2.675,5.008c-1.372,1.166 -3.099,1.75 -5.18,1.75c-2.446,-0 -4.481,-0.847 -6.105,-2.539c-1.578,-1.669 -2.367,-4.024 -2.367,-7.065c0,-2.996 0.812,-5.34 2.436,-7.032c1.646,-1.715 3.67,-2.572 6.071,-2.572c2.035,-0 3.738,0.594 5.11,1.783c1.372,1.189 2.218,2.778 2.539,4.768l-4.151,0.789c-0.434,-2.218 -1.6,-3.327 -3.498,-3.327c-1.281,-0 -2.287,0.48 -3.019,1.44c-0.731,0.961 -1.097,2.344 -1.097,4.151c-0,1.806 0.36,3.189 1.08,4.15c0.72,0.96 1.732,1.44 3.036,1.44c2.035,0 3.235,-1.28 3.601,-3.841Z" style="fill-rule:nonzero;"/><path d="M460.21,105.825l-4.459,0l0,-25.039l4.459,0l0,8.609l0.069,0c0.366,-0.617 0.977,-1.149 1.835,-1.595c0.857,-0.446 1.72,-0.668 2.589,-0.668c1.944,-0 3.488,0.594 4.631,1.783c1.143,1.189 1.715,2.79 1.715,4.802l-0,12.108l-4.459,0l-0,-11.113c-0,-1.052 -0.275,-1.892 -0.823,-2.521c-0.549,-0.629 -1.349,-0.944 -2.401,-0.944c-1.006,0.001 -1.784,0.286 -2.333,0.858c-0.548,0.572 -0.823,1.338 -0.823,2.298l0,11.422Z" style="fill-rule:nonzero;"/><path d="M474.307,99.823l4.013,-1.029c0.298,2.538 1.658,3.807 4.082,3.807c1.098,-0 1.972,-0.177 2.624,-0.532c0.652,-0.354 0.978,-0.852 0.978,-1.492c-0,-0.549 -0.252,-0.937 -0.755,-1.166c-0.594,-0.32 -1.646,-0.686 -3.156,-1.098c-0.114,-0.023 -0.445,-0.114 -0.994,-0.274c-2.15,-0.618 -3.705,-1.332 -4.665,-2.144c-0.96,-0.812 -1.441,-1.881 -1.441,-3.207c0,-1.509 0.606,-2.813 1.818,-3.91c1.235,-1.098 2.916,-1.647 5.042,-1.647c4.071,0 6.62,1.784 7.649,5.351l-3.704,1.132c-0.343,-0.937 -0.818,-1.64 -1.424,-2.109c-0.606,-0.469 -1.434,-0.703 -2.486,-0.703c-0.846,-0 -1.532,0.16 -2.058,0.48c-0.526,0.32 -0.789,0.72 -0.789,1.2c-0,0.48 0.297,0.881 0.892,1.201c0.64,0.274 2.16,0.754 4.561,1.44c2.15,0.595 3.591,1.327 4.322,2.196c0.778,0.846 1.166,1.966 1.166,3.361c0,1.463 -0.64,2.778 -1.92,3.944c-1.281,1.144 -3.11,1.715 -5.488,1.715c-2.538,0 -4.482,-0.628 -5.831,-1.886c-1.349,-1.281 -2.161,-2.824 -2.436,-4.631Z" style="fill-rule:nonzero;"/><path d="M504.32,98.485l4.219,1.097c-0.412,2.173 -1.304,3.842 -2.676,5.008c-1.372,1.166 -3.098,1.75 -5.179,1.75c-2.447,-0 -4.482,-0.847 -6.105,-2.539c-1.578,-1.669 -2.367,-4.024 -2.367,-7.065c-0,-2.996 0.812,-5.34 2.435,-7.032c1.647,-1.715 3.67,-2.572 6.071,-2.572c2.036,-0 3.739,0.594 5.111,1.783c1.372,1.189 2.218,2.778 2.538,4.768l-4.15,0.789c-0.434,-2.218 -1.601,-3.327 -3.499,-3.327c-1.28,-0 -2.286,0.48 -3.018,1.44c-0.732,0.961 -1.098,2.344 -1.098,4.151c0,1.806 0.361,3.189 1.081,4.15c0.72,0.96 1.732,1.44 3.035,1.44c2.036,0 3.236,-1.28 3.602,-3.841Z" style="fill-rule:nonzero;"/><path d="M516.428,105.825l-4.459,0l-0,-25.039l4.459,0l-0,8.609l0.068,0c0.366,-0.617 0.978,-1.149 1.835,-1.595c0.858,-0.446 1.721,-0.668 2.59,-0.668c1.944,-0 3.487,0.594 4.631,1.783c1.143,1.189 1.715,2.79 1.715,4.802l-0,12.108l-4.459,0l-0,-11.113c-0,-1.052 -0.275,-1.892 -0.824,-2.521c-0.548,-0.629 -1.349,-0.944 -2.401,-0.944c-1.006,0.001 -1.783,0.286 -2.332,0.858c-0.549,0.572 -0.823,1.338 -0.823,2.298l-0,11.422Z" style="fill-rule:nonzero;"/><path d="M531.726,99.377l-0,-11.731l4.459,0l-0,11.25c-0,1.144 0.217,1.956 0.651,2.436c0.435,0.48 1.132,0.72 2.093,0.72c1.12,0 2,-0.286 2.641,-0.857c0.64,-0.572 0.96,-1.453 0.96,-2.642l0,-10.907l4.459,0l0,18.179l-4.253,0l-0,-1.749l-0.069,-0c-1.143,1.509 -2.721,2.263 -4.733,2.263c-2.058,0 -3.607,-0.611 -4.648,-1.835c-1.04,-1.223 -1.56,-2.932 -1.56,-5.127Z" style="fill-rule:nonzero;"/><rect x="551.791" y="80.786" width="4.631" height="25.039" style="fill-rule:nonzero;"/><path d="M573.023,99.548l3.121,2.744c-1.852,2.698 -4.356,4.047 -7.512,4.047c-2.538,0.001 -4.607,-0.868 -6.208,-2.606c-1.601,-1.738 -2.401,-4.071 -2.401,-6.998c0,-2.904 0.789,-5.225 2.367,-6.962c1.623,-1.761 3.636,-2.641 6.037,-2.641c2.423,-0 4.413,0.88 5.968,2.641c1.578,1.737 2.366,4.058 2.366,6.963l0,1.337l-12.21,0c0.068,1.395 0.451,2.464 1.149,3.207c0.697,0.743 1.652,1.115 2.864,1.115c0.96,0 1.778,-0.234 2.452,-0.703c0.675,-0.469 1.344,-1.183 2.007,-2.144Zm-8.472,-4.802l7.889,0c-0.115,-1.166 -0.521,-2.075 -1.218,-2.727c-0.697,-0.651 -1.629,-0.977 -2.795,-0.977c-1.075,-0 -1.967,0.348 -2.676,1.046c-0.709,0.697 -1.109,1.583 -1.2,2.658Z" style="fill-rule:nonzero;"/><path d="M584.822,105.825l-4.459,0l-0,-18.179l4.287,0l0,1.749l0.069,0c0.503,-0.663 1.195,-1.206 2.075,-1.629c0.881,-0.423 1.79,-0.634 2.727,-0.634c2.012,-0 3.59,0.6 4.733,1.8c1.144,1.201 1.716,2.864 1.716,4.991l-0,11.902l-4.46,0l0,-10.804c0,-1.281 -0.245,-2.23 -0.737,-2.847c-0.492,-0.618 -1.309,-0.926 -2.452,-0.926c-1.098,-0 -1.956,0.314 -2.573,0.943c-0.617,0.629 -0.926,1.469 -0.926,2.521l0,11.113Z" style="fill-rule:nonzero;"/><path d="M214.655,67.3l2.676,0l-0,-4.596l3.121,-0l0,-2.504l-3.121,-0l-0,-15.95l-4.048,0l-10.667,15.984l0,2.47l12.039,-0l0,4.596Zm-9.329,-7.1l9.261,-13.823l0.068,0l0,13.823l-9.329,-0Z" style="fill-rule:nonzero;"/><rect x="224.602" y="63.321" width="4.082" height="3.979" style="fill-rule:nonzero;"/><path d="M242.85,67.78c2.835,-0.023 5.122,-1.086 6.86,-3.19c1.715,-2.103 2.595,-5.042 2.641,-8.815c-0.046,-3.773 -0.926,-6.711 -2.641,-8.815c-1.715,-2.104 -4.002,-3.167 -6.86,-3.19c-2.858,0.023 -5.145,1.086 -6.86,3.19c-1.715,2.104 -2.595,5.042 -2.641,8.815c0.046,3.773 0.926,6.712 2.641,8.815c1.738,2.104 4.024,3.167 6.86,3.19Zm-0,-2.504c-2.081,-0.023 -3.727,-0.857 -4.939,-2.504c-1.235,-1.623 -1.864,-3.956 -1.887,-6.997c0.023,-3.041 0.652,-5.385 1.887,-7.031c1.212,-1.624 2.858,-2.447 4.939,-2.47c2.081,0.023 3.727,0.846 4.939,2.47c1.235,1.646 1.864,3.99 1.887,7.031c-0.023,3.041 -0.652,5.374 -1.887,6.997c-1.212,1.647 -2.858,2.481 -4.939,2.504Z" style="fill-rule:nonzero;"/></svg>